<?xml version="1.0" encoding="UTF-8" standalone="no"?>
<svg width="10px" height="10px" viewBox="0 0 10 10" version="1.1" xmlns="http://www.w3.org/2000/svg" xmlns:xlink="http://www.w3.org/1999/xlink">
    <!-- Generator: Sketch 39.1 (31720) - http://www.bohemiancoding.com/sketch -->
    <title>Group 7</title>
    <desc>Created with Sketch.</desc>
    <defs>
        <path d="M4.97264245,8.75848338 L4.85682212,8.79859532 C4.22765589,9.01649384 3.36346306,8.78343328 2.92725562,8.27880605 L2.84690162,8.18584841 L2.72664894,8.16236668 C2.07340497,8.03480778 1.44090277,7.39856545 1.31410822,6.74227598 L1.29075133,6.62138055 L1.1982879,6.54059706 C0.69600239,6.10176005 0.464669274,5.23281658 0.681262114,4.6007171 L0.721160795,4.48427773 L0.681262114,4.36783835 C0.464522061,3.73530924 0.69634355,2.86649733 1.1982879,2.42795839 L1.29075133,2.3471749 L1.31410822,2.22627947 C1.44098895,1.56954393 2.07384866,0.933661033 2.72664894,0.806188775 L2.84690162,0.782707043 L2.92725562,0.689749396 C3.36375954,0.18477919 4.22808323,-0.0477903927 4.85682212,0.169960127 L4.97264245,0.210072065 L5.08846277,0.169960127 C5.71762901,-0.047938393 6.58182184,0.185122174 7.01802927,0.689749396 L7.09838327,0.782707043 L7.21863596,0.806188775 C7.87187993,0.933747673 8.50438212,1.56999 8.63117667,2.22627947 L8.65453356,2.3471749 L8.74699699,2.42795839 C9.2492825,2.8667954 9.48061562,3.73573887 9.26402278,4.36783835 L9.2241241,4.48427773 L9.26402278,4.6007171 C9.48076283,5.23324621 9.24894134,6.10205812 8.74699699,6.54059706 L8.65453356,6.62138055 L8.63117667,6.74227598 C8.50429595,7.39901152 7.87143623,8.03489442 7.21863596,8.16236668 L7.09838327,8.18584841 L7.01802927,8.27880605 C6.58152535,8.78377626 5.71720167,9.01634584 5.08846277,8.79859532 L4.97264245,8.75848338 Z M5.0440757,6.85812628 C6.31524283,6.85812628 7.34572739,5.82213382 7.34572739,4.54417236 C7.34572739,3.26621089 6.31524283,2.23021843 5.0440757,2.23021843 C3.77290858,2.23021843 2.74242402,3.26621089 2.74242402,4.54417236 C2.74242402,5.82213382 3.77290858,6.85812628 5.0440757,6.85812628 Z" id="path-1"></path>
        <mask id="mask-2" maskContentUnits="userSpaceOnUse" maskUnits="objectBoundingBox" x="0" y="0" width="8.74528485" height="8.79202806" fill="white">
            <use xlink:href="#path-1"></use>
        </mask>
    </defs>
    <g id="b-and-c" stroke="none" stroke-width="1" fill="none" fill-rule="evenodd">
        <g id="Artboard" transform="translate(-112.000000, -304.000000)">
            <g id="Group-7" transform="translate(112.000000, 304.000000)">
                <g id="ic_list_education">
                    <path d="M7.71417131,9.73986713 L8.07037608,9.21483153 L7.84204381,9.33543817 L8.41927533,9.3370386 C8.9012338,9.33837488 9.15381654,8.91427249 8.93345172,8.49271098 L8.2831728,7.24871674 L8.26978697,7.23612912 L8.02376448,7.37117095 L6.34749495,8.29127593 L6.11662703,8.41799942 L6.73725169,9.67454839 C6.95339083,10.1121549 7.43803916,10.146878 7.71417131,9.73986713 Z M7.79575028,7.50350938 L8.44602921,8.74750363 C8.47587769,8.80460427 8.48622998,8.78722213 8.42080025,8.78704072 L7.84356873,8.78544029 L7.69733581,8.78503484 L7.61523645,8.90604694 L7.25903168,9.43108254 C7.22003834,9.4885576 7.26023976,9.49143787 7.23038164,9.43098556 L6.60975698,8.17443663 L7.84356872,7.50350938 L7.79575028,7.50350938 Z" id="Path-256" fill="#B3B3B3"></path>
                    <path d="M3.27660322,9.67454839 C3.06046407,10.1121549 2.57581575,10.146878 2.2996836,9.73986713 L1.94347883,9.21483153 L2.1718111,9.33543817 L1.59457957,9.3370386 C1.1126211,9.33837488 0.860038366,8.91427249 1.08040318,8.49271098 L1.73068211,7.24871674 L1.97670462,7.38375857 L3.65297415,8.30386355 L3.88384207,8.43058704 L3.89722787,8.41799945 L3.27660322,9.67454839 Z M2.17028619,7.50350938 L2.21810462,7.50350938 L1.5678257,8.74750363 C1.53797721,8.80460427 1.52762492,8.78722213 1.59305465,8.78704072 L2.17028618,8.78544029 L2.31651909,8.78503484 L2.39861845,8.90604694 L2.75482322,9.43108254 C2.79381656,9.4885576 2.75361514,9.49143787 2.78347326,9.43098556 L3.40409792,8.17443663 L2.17028619,7.50350938 L2.17028619,7.50350938 L2.17028619,7.50350938 L2.17028619,7.50350938 Z" id="Path-256-Copy" fill="#B3B3B3"></path>
                    <use id="Star-2-Copy" stroke="#B3B3B3" mask="url(#mask-2)" stroke-width="1.1" xlink:href="#path-1"></use>
                </g>
            </g>
        </g>
    </g>
</svg>